<?xml version="1.0" ?><svg height="1024" preserveAspectRatio="xMidYMid meet" width="1024" xmlns="http://www.w3.org/2000/svg"><g><title/><rect fill="none" height="1026" id="canvas_background" width="1026" x="-1" y="-1"/></g><g><title/><g fill="#000000" id="svg_1" transform="translate(0,1024) scale(0.10000000149011612,-0.10000000149011612) "><path d="m4910,9444c-885,-52 -1705,-351 -2399,-877c-371,-280 -721,-651 -978,-1033c-401,-597 -638,-1250 -720,-1986c-23,-211 -23,-665 0,-876c133,-1198 703,-2233 1637,-2972c641,-507 1399,-813 2242,-907c211,-23 665,-23 876,0c717,80 1341,301 1932,685c1003,651 1706,1718 1905,2894c46,272 58,432 58,738c0,306 -12,466 -58,738c-158,929 -640,1815 -1334,2450c-702,641 -1554,1027 -2492,1127c-142,15 -542,26 -669,19zm496,-1594c373,-29 669,-107 979,-259c564,-277 897,-676 1019,-1222c50,-225 60,-341 60,-654c0,-255 -2,-306 -22,-420c-72,-418 -223,-784 -462,-1119c-343,-481 -821,-720 -1385,-692c-259,13 -397,64 -678,253c-120,80 -199,128 -202,120c-2,-6 -18,-82 -35,-167c-18,-85 -56,-249 -85,-365c-163,-642 -329,-1020 -554,-1267c-75,-83 -168,-171 -218,-206l-32,-23l-5,33c-34,216 -42,939 -13,1128c56,357 172,870 312,1385c87,319 127,478 145,582c13,71 13,73 -18,155c-58,154 -73,237 -79,433c-4,141 -2,200 11,275c32,181 96,325 205,462c185,233 389,303 635,218c148,-51 247,-149 288,-285c31,-105 26,-296 -13,-463c-11,-48 -69,-244 -129,-437c-125,-400 -145,-472 -161,-593c-19,-144 5,-319 56,-408c80,-138 280,-224 519,-224c214,0 364,61 525,214c221,211 392,514 476,846c57,225 69,335 70,625c0,182 -4,298 -14,355c-57,357 -157,576 -351,769c-189,188 -418,312 -678,366c-240,50 -599,34 -847,-36c-394,-112 -753,-383 -1000,-755c-119,-179 -192,-351 -237,-558c-19,-85 -22,-132 -22,-301c0,-261 15,-323 139,-550c160,-293 164,-325 75,-578c-29,-80 -47,-117 -57,-117c-24,0 -192,59 -248,88c-295,148 -482,422 -557,817c-20,106 -23,151 -23,385c0,234 3,279 23,385c83,437 262,775 574,1086c530,528 1235,780 2014,719z" fill="#cb2027" id="svg_2"/></g></g></svg>