<?xml version="1.0" encoding="UTF-8" standalone="no" ?>
<!DOCTYPE svg PUBLIC "-//W3C//DTD SVG 1.1//EN" "http://www.w3.org/Graphics/SVG/1.1/DTD/svg11.dtd">
<svg xmlns="http://www.w3.org/2000/svg" xmlns:xlink="http://www.w3.org/1999/xlink" version="1.1" width="400" height="400" viewBox="0 0 400 400" xml:space="preserve">
<desc>Created with Fabric.js 3.6.2</desc>
<defs>
</defs>
<g transform="matrix(4.17 0 0 4.17 200 200)" id="Layer_1"  >
<circle style="stroke: none; stroke-width: 1; stroke-dasharray: none; stroke-linecap: butt; stroke-dashoffset: 0; stroke-linejoin: miter; stroke-miterlimit: 4; fill: rgb(211,47,47); fill-rule: nonzero; opacity: 1;"  cx="0" cy="0" r="20" />
</g>
<g transform="matrix(4.17 0 0 4.17 200 208.33)" id="Layer_1"  >
<path style="stroke: none; stroke-width: 1; stroke-dasharray: none; stroke-linecap: butt; stroke-dashoffset: 0; stroke-linejoin: miter; stroke-miterlimit: 4; fill: rgb(255,255,255); fill-rule: nonzero; opacity: 1;"  transform=" translate(-24, -26)" d="M 19.562 27 c 0 -3.329 -0.562 -4.482 -0.562 -5.788 C 19 18.243 21.131 18 22.032 18 C 23.316 18 25 18.871 25 20.5 c 0 2.371 -2 2.671 -2 2.671 S 23 24 23 25.46 C 23 27 23.372 29 26.123 29 C 30.537 29 31 22.848 31 21.163 C 31 18.834 29.51 14 24.213 14 C 17.148 14 16 20.313 16 22 c 0 0.722 0.132 2.122 0.269 2.667 c 2.106 0.52 1.615 2.375 1.044 2.895 C 16.484 28.328 13 28.477 13 21.325 C 13 14.513 19.072 11 24.402 11 C 29.474 11 35 14.502 35 21.246 c 0 6.018 -4.327 10.757 -8.872 10.757 c -2.728 0 -4.175 -2.248 -4.175 -2.248 C 21.953 34 18.495 40.083 18 41 C 18 41 19.562 33.146 19.562 27 z" stroke-linecap="round" />
</g>
</svg>